<svg width="38" height="38" viewBox="0 0 38 38" fill="none" xmlns="http://www.w3.org/2000/svg">
<path d="M29.6244 9.75H8.04102C5.48671 9.75 3.41602 11.8207 3.41602 14.375V18.5697L13.957 22.0833H23.7084L34.2494 18.5697V14.375C34.2494 11.8207 32.1787 9.75 29.6244 9.75Z" fill="#8A1820" fill-opacity="0.64"/>
<path d="M15.7493 7.70833H15.2493V8.20833V9.25H13.166V8.2089C13.1676 6.78261 14.3234 5.62678 15.7496 5.625H21.9157C23.342 5.62678 24.4977 6.78261 24.4993 8.2089V9.25H22.416V8.20833V7.70833H21.916H15.7493ZM13.7989 22.5577L13.8759 22.5833H13.957H23.7084H23.7895L23.8665 22.5577L33.7494 19.2633V28.2495C33.7469 30.5269 31.9013 32.3725 29.6238 32.375H8.04156C5.7642 32.3725 3.91865 30.5271 3.91602 28.2497V19.2633L13.7989 22.5577Z" fill="#8A1820" stroke="#8A1820"/>
</svg>
