<svg width="38" height="37" viewBox="0 0 38 37" fill="none" xmlns="http://www.w3.org/2000/svg">
<path d="M6.49935 24.6666C4.79647 24.6666 3.41602 23.2862 3.41602 21.5833C3.41602 19.8804 4.79647 18.5 6.49935 18.5C8.20223 18.5 9.58268 19.8804 9.58268 21.5833C9.58048 23.2853 8.20132 24.6644 6.49935 24.6666ZM6.49935 9.24998C4.79647 9.24998 3.41602 7.86952 3.41602 6.16665C3.41602 4.46377 4.79647 3.08331 6.49935 3.08331C8.20223 3.08331 9.58268 4.46377 9.58268 6.16665C9.58048 7.86862 8.20132 9.24777 6.49935 9.24998ZM21.916 9.24998C20.2131 9.24998 18.8327 7.86952 18.8327 6.16665C18.8327 4.46377 20.2131 3.08331 21.916 3.08331C23.6189 3.08331 24.9993 4.46377 24.9993 6.16665C24.9971 7.86862 23.618 9.24777 21.916 9.24998ZM21.916 24.6666C20.2131 24.6666 18.8327 23.2862 18.8327 21.5833C18.8327 19.8804 20.2131 18.5 21.916 18.5C23.6189 18.5 24.9993 19.8804 24.9993 21.5833C24.9971 23.2853 23.618 24.6644 21.916 24.6666Z" fill="#8A1820" fill-opacity="0.6"/>
<path d="M13.166 30.8333C13.166 32.2598 14.3223 33.4163 15.7487 33.4166L13.166 30.8333ZM13.166 30.8333C13.166 29.4066 14.3226 28.25 15.7493 28.25M13.166 30.8333L15.7493 28.25M15.7493 28.25C17.176 28.25 18.3325 29.4064 18.3327 30.833M15.7493 28.25L18.3327 30.833M18.3327 30.833C18.3306 32.2592 17.1749 33.4148 15.7488 33.4166L18.3327 30.833ZM28.5827 15.4166C28.5827 16.8433 29.7391 17.9998 31.1657 18C32.5919 17.9979 33.7475 16.8422 33.7494 15.4161L28.5827 15.4166ZM28.5827 15.4166C28.5827 13.9899 29.7393 12.8333 31.166 12.8333M28.5827 15.4166L31.166 12.8333M31.166 12.8333C32.5925 12.8333 33.749 13.9896 33.7494 15.416L31.166 12.8333ZM28.5827 30.8333C28.5827 32.2598 29.7389 33.4163 31.1654 33.4166L28.5827 30.8333ZM28.5827 30.8333C28.5827 29.4066 29.7393 28.25 31.166 28.25M28.5827 30.8333L31.166 28.25M31.166 28.25C32.5925 28.25 33.749 29.4062 33.7494 30.8327L31.166 28.25ZM15.7491 18C14.3225 17.9998 13.166 16.8433 13.166 15.4166C13.166 13.9899 14.3226 12.8333 15.7493 12.8333C17.176 12.8333 18.3325 13.9898 18.3327 15.4164C18.3306 16.8424 17.1751 17.9979 15.7491 18ZM33.7494 30.8327C33.7475 32.259 32.5917 33.4148 31.1654 33.4166L33.7494 30.8327Z" fill="#8A1820" stroke="#8A1820"/>
<path d="M19.2621 7.70833C18.69 6.76016 18.69 5.57317 19.2621 4.625H9.15393C9.72603 5.57317 9.72603 6.76016 9.15393 7.70833H19.2621ZM6.49967 18.5C7.04262 18.5031 7.57486 18.6512 8.04134 18.9291V8.82092C7.09317 9.39302 5.90618 9.39302 4.95801 8.82092V18.9291C5.42449 18.6512 5.95673 18.5031 6.49967 18.5Z" fill="#8A1820" fill-opacity="0.12"/>
<path d="M31.1663 27.75C31.7093 27.7531 32.2415 27.9012 32.708 28.1791V18.0709C31.7599 18.643 30.5728 18.643 29.6247 18.0709V28.1791C30.0912 27.9012 30.6234 27.7531 31.1663 27.75ZM15.7497 27.75C16.2926 27.7531 16.8249 27.9012 17.2913 28.1791V18.0709C16.3432 18.643 15.1562 18.643 14.208 18.0709V28.1791C14.6745 27.9012 15.2067 27.7531 15.7497 27.75Z" fill="#8A1820" fill-opacity="0.6"/>
<path d="M19.2625 20.0417H17.2917V23.125H19.2625C18.6904 22.1768 18.6904 20.9899 19.2625 20.0417ZM14.2084 23.125V20.0417H9.1543C9.72639 20.9899 9.72639 22.1768 9.1543 23.125H14.2084Z" fill="#8A1820" fill-opacity="0.12"/>
<path d="M28.5125 29.2917H18.4043C18.9764 30.2398 18.9764 31.4268 18.4043 32.375H28.5125C27.9404 31.4268 27.9404 30.2398 28.5125 29.2917ZM28.5125 16.9583C27.9404 16.0102 27.9404 14.8232 28.5125 13.875H18.4043C18.9764 14.8232 18.9764 16.0102 18.4043 16.9583H28.5125Z" fill="#8A1820" fill-opacity="0.6"/>
<path d="M23.4583 13.875V8.82092C22.5102 9.39302 21.3232 9.39302 20.375 8.82092V13.875H23.4583ZM20.375 16.9583V18.9291C21.3232 18.357 22.5102 18.357 23.4583 18.9291V16.9583H20.375Z" fill="#8A1820" fill-opacity="0.12"/>
</svg>
