<svg width="37" height="37" viewBox="0 0 37 37" fill="none" xmlns="http://www.w3.org/2000/svg">
<path d="M9.25033 25.4375C8.18313 25.4375 7.1399 25.121 6.25256 24.5281C5.36522 23.9352 4.67363 23.0925 4.26523 22.1065C3.85683 21.1206 3.74997 20.0357 3.95817 18.989C4.16637 17.9423 4.68028 16.9808 5.4349 16.2262C6.18952 15.4716 7.15096 14.9577 8.19765 14.7495C9.24434 14.5413 10.3293 14.6482 11.3152 15.0565C12.3012 15.4649 13.1439 16.1565 13.7368 17.0439C14.3297 17.9312 14.6462 18.9745 14.6462 20.0416C14.6444 21.4722 14.0754 22.8436 13.0638 23.8552C12.0523 24.8667 10.6809 25.4358 9.25033 25.4375Z" fill="#8A1820" fill-opacity="0.64"/>
<path d="M13.3207 23.544C12.8212 24.1371 12.198 24.6139 11.4949 24.9409C10.7919 25.268 10.0258 25.4374 9.25033 25.4374C8.47488 25.4374 7.7088 25.268 7.0057 24.9409C6.3026 24.6139 5.67947 24.1371 5.17992 23.544C4.06991 24.2322 3.15346 25.1918 2.51697 26.3322C1.88049 27.4727 1.54495 28.7564 1.54199 30.0625C1.54199 30.4714 1.70442 30.8635 1.99354 31.1526C2.28265 31.4417 2.67478 31.6041 3.08366 31.6041H15.417C15.8259 31.6041 16.218 31.4417 16.5071 31.1526C16.7962 30.8635 16.9587 30.4714 16.9587 30.0625C16.9557 28.7564 16.6202 27.4727 15.9837 26.3322C15.3472 25.1918 14.4307 24.2322 13.3207 23.544V23.544ZM27.7503 25.4375C26.6831 25.4375 25.6399 25.121 24.7526 24.5281C23.8652 23.9352 23.1736 23.0925 22.7652 22.1065C22.3568 21.1206 22.25 20.0357 22.4582 18.989C22.6664 17.9423 23.1803 16.9808 23.9349 16.2262C24.6895 15.4716 25.651 14.9577 26.6977 14.7495C27.7443 14.5413 28.8293 14.6482 29.8152 15.0565C30.8012 15.4649 31.6439 16.1565 32.2368 17.0439C32.8297 17.9312 33.1462 18.9745 33.1462 20.0416C33.1444 21.4722 32.5754 22.8436 31.5638 23.8552C30.5523 24.8667 29.1809 25.4358 27.7503 25.4375Z" fill="#8A1820" fill-opacity="0.6"/>
<path d="M31.8207 23.544C31.3212 24.1371 30.698 24.6139 29.9949 24.9409C29.2919 25.268 28.5258 25.4375 27.7503 25.4375C26.9749 25.4375 26.2088 25.268 25.5057 24.9409C24.8026 24.6139 24.1795 24.1371 23.6799 23.544C22.5699 24.2322 21.6535 25.1918 21.017 26.3322C20.3805 27.4727 20.045 28.7565 20.042 30.0625C20.042 30.4714 20.2044 30.8635 20.4935 31.1526C20.7827 31.4417 21.1748 31.6042 21.5837 31.6042H33.917C34.3259 31.6042 34.718 31.4417 35.0071 31.1526C35.2962 30.8635 35.4587 30.4714 35.4587 30.0625C35.4557 28.7565 35.1202 27.4727 34.4837 26.3322C33.8472 25.1918 32.9307 24.2322 31.8207 23.544V23.544Z" fill="#8A1820" fill-opacity="0.8"/>
<path d="M14.9302 11.916L15.3807 12.3665C15.5733 12.5621 15.681 12.826 15.6801 13.1006C15.6792 13.3757 15.5696 13.6392 15.3751 13.8338C15.1806 14.0283 14.917 14.1379 14.6419 14.1388C14.3673 14.1397 14.1035 14.0321 13.9079 13.8394C13.9075 13.8391 13.9072 13.8387 13.9068 13.8384L10.8257 10.7573L10.8256 10.7572C10.7289 10.6605 10.6522 10.5457 10.5998 10.4194C10.5475 10.293 10.5205 10.1576 10.5205 10.0208C10.5205 9.88408 10.5475 9.74866 10.5998 9.62231C10.6522 9.49597 10.7289 9.38118 10.8256 9.28449L10.8257 9.2844L13.9078 6.20229C14.1035 6.00962 14.3673 5.90198 14.6419 5.90284C14.917 5.9037 15.1806 6.01335 15.3751 6.20786C15.5696 6.40238 15.6793 6.66595 15.6801 6.94103C15.681 7.21564 15.5734 7.47946 15.3807 7.6751L14.9303 8.12558L14.0767 8.97914H15.2838H21.7156H22.9227L22.0691 8.12558L21.6192 7.67565C21.4277 7.47988 21.3209 7.21654 21.3222 6.94263C21.3234 6.66804 21.4331 6.40506 21.6272 6.21089C21.8214 6.01673 22.0844 5.9071 22.359 5.90586C22.6329 5.90462 22.8962 6.01132 23.092 6.20282C23.0924 6.2033 23.0929 6.20377 23.0934 6.20425L26.1735 9.2844L26.5271 8.93085L26.1736 9.28448C26.2703 9.38116 26.3471 9.49595 26.3994 9.62229C26.4518 9.74863 26.4787 9.88405 26.4787 10.0208C26.4787 10.1576 26.4518 10.293 26.3994 10.4193C26.3471 10.5457 26.2703 10.6604 26.1736 10.7571L26.1735 10.7572L23.0902 13.8405L23.0902 13.8406C22.8949 14.0359 22.63 14.1456 22.3538 14.1456C22.0775 14.1456 21.8126 14.0359 21.6173 13.8406C21.422 13.6453 21.3122 13.3804 21.3122 13.1042C21.3122 12.828 21.4219 12.5631 21.6172 12.3677C21.6172 12.3677 21.6172 12.3677 21.6172 12.3677L22.0689 11.916L22.9225 11.0625H21.7154H15.2837H14.0766L14.9302 11.916Z" fill="#8A1820" stroke="#8A1820"/>
</svg>
