<svg width="38" height="38" viewBox="0 0 38 38" fill="none" xmlns="http://www.w3.org/2000/svg">
<path d="M24.5998 26.8579L24.5999 26.858L24.6096 26.8491L27.7252 23.9844L28.5561 27.4124C28.5562 27.4127 28.5562 27.4129 28.5563 27.4132C28.7632 28.274 28.6913 29.1783 28.3511 29.9956C28.0119 30.8108 27.4231 31.4975 26.6695 31.9573L20.6563 35.3489C20.514 35.4291 20.3548 35.4748 20.1916 35.4821C20.0283 35.4895 19.8657 35.4584 19.7167 35.3913C19.5677 35.3242 19.4366 35.223 19.3339 35.0959C19.2313 34.9688 19.1599 34.8194 19.1256 34.6596L18.2289 30.4755C20.5722 29.7097 22.7391 28.4799 24.5998 26.8579ZM14.1853 10.5027L11.4862 13.7074L11.8686 14.0295L11.4851 13.7087C9.9139 15.5869 8.69509 17.732 7.88602 20.0406L3.58457 19.1185L3.58437 19.1185C3.4246 19.0843 3.27512 19.013 3.14799 18.9104C3.02087 18.8078 2.91968 18.6767 2.85259 18.5277C2.78551 18.3787 2.75441 18.2161 2.76181 18.0528C2.76922 17.8896 2.81492 17.7305 2.89522 17.5882L2.89525 17.5881L6.28721 11.5758L6.29222 11.5669L6.29686 11.5578C6.71278 10.7449 7.40884 10.1099 8.25647 9.77014C9.1041 9.43041 10.046 9.4089 10.9083 9.70957L10.9316 9.71771L10.9557 9.7235L14.1853 10.5027ZM26.4653 13.5918C25.9846 13.5915 25.5237 13.4005 25.1839 13.0606C24.844 12.7208 24.653 12.2599 24.6528 11.7793L26.4653 13.5918ZM27.4722 13.2863C27.1742 13.4854 26.8239 13.5917 26.4654 13.5918L24.6528 11.7791C24.6528 11.4207 24.7591 11.0703 24.9582 10.7723C25.1574 10.4742 25.4405 10.2419 25.7717 10.1047C26.1028 9.96754 26.4673 9.93165 26.8189 10.0016C27.1705 10.0715 27.4934 10.2441 27.7469 10.4976C28.0004 10.7511 28.173 11.0741 28.2429 11.4257C28.3129 11.7772 28.277 12.1417 28.1398 12.4729C28.0026 12.8041 27.7703 13.0871 27.4722 13.2863Z" fill="#8A1820" stroke="#8A1820"/>
<path d="M35.5103 3.67891C35.4407 3.41486 35.3023 3.17399 35.1092 2.98091C34.9161 2.78782 34.6753 2.64944 34.4112 2.57987C31.2487 1.75781 27.9183 1.84596 24.8037 2.83417C21.6891 3.82239 18.9171 5.67045 16.807 8.16543L11.8681 14.0295C9.40083 16.9723 7.83564 20.5648 7.36055 24.3755C7.33008 24.6097 7.3538 24.8478 7.42989 25.0713C7.50598 25.2949 7.63239 25.498 7.7994 25.665L12.5787 30.4443C12.7218 30.5875 12.8917 30.7011 13.0787 30.7786C13.2658 30.8561 13.4662 30.896 13.6687 30.896C13.7131 30.896 13.7575 30.8938 13.8027 30.89C17.6719 30.5703 21.3386 29.0259 24.2706 26.481L29.9178 21.2885C32.4217 19.1839 34.2765 16.4117 35.2665 13.2943C36.2565 10.1769 36.3411 6.84247 35.5103 3.67891V3.67891ZM26.4647 14.0917C26.0074 14.0917 25.5603 13.956 25.18 13.7019C24.7997 13.4478 24.5033 13.0867 24.3283 12.6641C24.1532 12.2416 24.1074 11.7766 24.1967 11.328C24.2859 10.8794 24.5061 10.4674 24.8295 10.144C25.1529 9.82058 25.565 9.60033 26.0136 9.5111C26.4622 9.42188 26.9271 9.46767 27.3497 9.6427C27.7722 9.81773 28.1334 10.1141 28.3875 10.4944C28.6416 10.8747 28.7772 11.3218 28.7772 11.7792C28.777 12.3924 28.5333 12.9805 28.0997 13.4141C27.666 13.8477 27.078 14.0914 26.4647 14.0917V14.0917Z" fill="#8A1820" fill-opacity="0.64"/>
</svg>
