<svg width="38" height="37" viewBox="0 0 38 37" fill="none" xmlns="http://www.w3.org/2000/svg">
<path d="M21.4795 13.875C20.2023 13.875 19.167 12.8397 19.167 11.5625C19.167 10.2853 20.2023 9.25 21.4795 9.25C22.7567 9.25 23.792 10.2853 23.792 11.5625C23.7906 12.8391 22.7561 13.8736 21.4795 13.875Z" fill="#8A1820" fill-opacity="0.12"/>
<path d="M29.9583 3.08331H8.375C5.82377 3.09076 3.75745 5.15709 3.75 7.70831V21.3675L9.73167 15.3858C11.5624 13.6437 14.4377 13.6437 16.2683 15.3858L20.6951 19.8366L22.0633 18.4684C23.8724 16.6698 26.7943 16.6698 28.6033 18.4684L34.5833 24.4483V7.70831C34.5759 5.15709 32.5096 3.09076 29.9583 3.08331ZM21.4792 13.875C20.202 13.875 19.1667 12.8396 19.1667 11.5625C19.1667 10.2853 20.202 9.24998 21.4792 9.24998C22.7563 9.24998 23.7917 10.2853 23.7917 11.5625C23.7903 12.8391 22.7557 13.8736 21.4792 13.875Z" fill="#8A1820" fill-opacity="0.64"/>
<path d="M10.0807 15.7439C11.7169 14.1912 14.2824 14.1911 15.9188 15.7434L32.5685 32.4836C31.8361 33.0834 30.9149 33.4162 29.9583 33.4167C29.9583 33.4167 29.9582 33.4167 29.9581 33.4167L8.37646 33.4167C8.37625 33.4167 8.37604 33.4167 8.37583 33.4167C6.10015 33.4097 4.25704 31.5666 4.25 29.2909V21.5746L10.0807 15.7439Z" fill="#8A1820" stroke="#8A1820"/>
<path d="M34.5836 24.4484L28.6036 18.4684C26.7945 16.6699 23.8726 16.6699 22.0636 18.4684L20.6953 19.8366L33.2819 32.4915C34.1176 31.6362 34.585 30.4875 34.5836 29.2917V24.4484Z" fill="#8A1820" fill-opacity="0.12"/>
</svg>
