<svg width="37" height="37" viewBox="0 0 37 37" fill="none" xmlns="http://www.w3.org/2000/svg">
<path d="M23.1246 3.08331C17.9181 3.0855 13.456 6.80585 12.5176 11.9271C16.9991 9.47471 22.6201 11.1197 25.0725 15.6012C26.5865 18.3679 26.5865 21.7153 25.0725 24.482C30.9328 23.4085 34.8133 17.7875 33.7398 11.9272C32.8011 6.80275 28.3343 3.08134 23.1246 3.08331Z" fill="#8A1820" fill-opacity="0.12"/>
<path d="M17.9997 26.2083C17.9997 30.1894 14.7724 33.4167 10.7913 33.4167C6.81029 33.4167 3.58301 30.1894 3.58301 26.2083C3.58301 22.2273 6.81029 19 10.7913 19C14.7724 19 17.9997 22.2273 17.9997 26.2083Z" fill="#8A1820" stroke="#8A1820"/>
<path d="M16.9586 10.7917C12.2051 10.7922 8.22569 14.3955 7.75488 19.1257C11.6642 17.446 16.195 19.2536 17.8747 23.1629C18.7089 25.1046 18.7089 27.3037 17.8747 29.2454C22.958 28.74 26.6691 24.2094 26.1636 19.1261C25.6932 14.3951 21.7129 10.7913 16.9586 10.7917Z" fill="#8A1820" fill-opacity="0.64"/>
</svg>
