<svg width="17" height="16" viewBox="0 0 17 16" fill="none" xmlns="http://www.w3.org/2000/svg">
<path d="M10.9453 6.95838H12.1524L11.2989 6.10483L7.76568 2.57154C7.57418 2.37578 7.46747 2.11244 7.46871 1.83854C7.46995 1.56395 7.57959 1.30097 7.77375 1.1068C7.96791 0.912642 8.2309 0.803012 8.50548 0.801769C8.7794 0.800528 9.04275 0.907249 9.23852 1.09877L15.4018 7.26194C15.402 7.26212 15.4022 7.2623 15.4023 7.26248C15.5969 7.45861 15.7061 7.7237 15.7061 8C15.7061 8.27631 15.5969 8.5414 15.4023 8.73752C15.4022 8.7377 15.402 8.73788 15.4018 8.73806L9.23895 14.9009C9.23861 14.9013 9.23827 14.9016 9.23792 14.9019C9.04229 15.0946 8.77849 15.2022 8.50388 15.2013C8.2288 15.2005 7.96522 15.0908 7.7707 14.8963C7.57618 14.7018 7.46652 14.4382 7.46565 14.1632C7.46478 13.8886 7.57239 13.6247 7.76504 13.4291C7.76538 13.4288 7.76572 13.4284 7.76605 13.4281L11.2989 9.89527L12.1524 9.04172H10.9453H2.33366C2.05739 9.04172 1.79244 8.93197 1.59709 8.73662C1.40174 8.54127 1.29199 8.27632 1.29199 8.00005C1.29199 7.72378 1.40174 7.45883 1.59709 7.26348C1.79244 7.06813 2.05739 6.95838 2.33366 6.95838H10.9453Z" fill="#8A1820" stroke="#8A1820"/>
</svg>
