<svg width="24" height="24" viewBox="0 0 24 24" fill="none" xmlns="http://www.w3.org/2000/svg">
<path d="M10.5196 9.00011C10.963 8.78303 11.3104 8.40964 11.495 7.9518C11.6796 7.49396 11.6884 6.98402 11.5196 6.52011C11.3608 6.09253 11.2305 5.65491 11.1296 5.21011M10.5196 9.00011L21.9096 18.9001C21.9116 19.3245 21.8235 19.7446 21.6511 20.1324C21.4787 20.5203 21.226 20.8672 20.9096 21.1501C20.359 21.6406 19.647 21.9112 18.9096 21.9101H18.5296C14.3383 21.3926 10.4389 19.4935 7.44726 16.5127C4.45564 13.532 2.54235 9.63949 2.00961 5.45011C1.95069 5.02317 1.98445 4.58855 2.1086 4.17583C2.23275 3.76311 2.44436 3.38198 2.72904 3.05839C3.01372 2.73481 3.36478 2.47636 3.75832 2.30064C4.15186 2.12493 4.57864 2.03607 5.00961 2.04011H8.00961C8.72431 2.02972 9.41923 2.27485 9.96923 2.73135M10.5196 9.00011L10.0996 9.28011M10.5196 9.00011L10.0996 9.28011M11.1296 5.21011C11.0796 4.99011 11.0396 4.76011 11.0096 4.53011M11.1296 5.21011L10.642 5.32076C10.7477 5.78651 10.8841 6.24475 11.0503 6.6925C11.1763 7.04004 11.1696 7.42191 11.0313 7.76482C10.8928 8.1082 10.6323 8.38824 10.2997 8.55105L10.2699 8.56566L10.2423 8.58409L9.82226 8.86409L9.43839 9.12L9.66267 9.52318C10.2267 10.5372 10.9273 11.4689 11.7448 12.2924L11.7474 12.295C12.5708 13.1124 13.5026 13.813 14.5165 14.3771L14.9773 14.6333L15.2088 14.1597L15.4287 13.71C15.5915 13.3775 15.8715 13.1169 16.2149 12.9784C16.5574 12.8403 16.9387 12.8334 17.2859 12.959C17.7336 13.1282 18.1929 13.2649 18.6603 13.368C18.6892 13.3746 18.7226 13.3829 18.7597 13.392C18.9245 13.4327 19.1611 13.4912 19.3884 13.4992C19.9436 13.6074 20.4461 13.9008 20.8133 14.332C21.1878 14.7716 21.3985 15.3274 21.4096 15.9047M11.1296 5.21011L21.4096 15.9047M11.0096 4.53011C10.8882 3.82573 10.5192 3.18785 9.96923 2.73135M11.0096 4.53011L10.5138 4.59478C10.5143 4.59838 10.5148 4.60197 10.5152 4.60557M11.0096 4.53011L10.5169 4.61506C10.5163 4.61189 10.5158 4.60873 10.5152 4.60557M9.96923 2.73135L9.6499 3.11609C9.19156 2.73567 8.61246 2.5314 8.01688 2.54006L8.00961 2.54017V2.54011H5.00961H5.00492L5.00492 2.54009C4.64578 2.53672 4.29013 2.61077 3.96218 2.7572C3.63423 2.90363 3.34168 3.119 3.10444 3.38866C2.86721 3.65831 2.69086 3.97592 2.58741 4.31985C2.48395 4.66379 2.45582 5.02597 2.50492 5.38176L2.50565 5.38703L2.50562 5.38704C3.02434 9.46617 4.88728 13.2562 7.80017 16.1586C10.7059 19.0537 14.4911 20.9008 18.5606 21.4101H18.9096H18.9103C19.5247 21.411 20.1179 21.1857 20.5767 20.7771C20.8401 20.5414 21.0506 20.2524 21.1942 19.9294C21.3378 19.6061 21.4113 19.2561 21.4096 18.9024L21.4096 18.9001L21.4096 15.9047M9.96923 2.73135L9.6499 3.11609C10.1058 3.49446 10.4124 4.02235 10.5152 4.60557M21.4096 15.9047L10.5152 4.60557M10.0996 9.28011C10.6414 10.2541 11.3144 11.1491 12.0996 11.9401L10.0996 9.28011ZM20.4396 19.0007L20.4396 18.9969L20.4196 15.8833C20.4255 15.5373 20.3115 15.1997 20.0969 14.928C19.8806 14.6542 19.5756 14.4644 19.2345 14.3912L19.2183 14.3878L19.202 14.3854C18.9413 14.3472 18.6839 14.2996 18.4299 14.2424C17.9142 14.1254 17.406 13.9774 16.908 13.7993L16.4706 13.6429L16.2824 14.0676L15.6646 15.4628C15.6368 15.5214 15.5978 15.5741 15.5498 15.6179C15.5009 15.6625 15.4436 15.697 15.3812 15.7193L15.3703 15.7232L15.3596 15.7276C15.2409 15.7764 15.1081 15.7776 14.9887 15.7313C12.0183 14.341 9.63059 11.9512 8.24294 8.97917C8.21532 8.91955 8.19973 8.85507 8.19704 8.78942C8.19436 8.72363 8.20469 8.65795 8.22746 8.59616C8.25022 8.53437 8.28497 8.47768 8.3297 8.42936C8.37443 8.38103 8.42827 8.34202 8.48812 8.31456L8.48812 8.31457L8.49017 8.31362L9.89017 7.66362L10.3115 7.46798L10.1473 7.03339C9.96517 6.55127 9.81835 6.05652 9.70802 5.55308L9.70803 5.55308L9.70742 5.55036C9.65023 5.29618 9.60253 5.03864 9.56434 4.77771L9.56195 4.76138L9.55849 4.74524C9.4853 4.40409 9.29549 4.09913 9.02171 3.88284C8.74953 3.66782 8.41129 3.55381 8.06461 3.56011L5.06961 3.56011L5.06898 3.56011C4.856 3.56038 4.64552 3.606 4.45155 3.69394C4.25757 3.78187 4.08454 3.91011 3.94398 4.07011L3.9439 4.07004L3.93722 4.07797C3.79874 4.24235 3.69503 4.4331 3.63235 4.63869C3.56967 4.84428 3.54932 5.06045 3.57254 5.27412L3.57249 5.27413L3.57338 5.28135C4.04939 9.1389 5.79608 12.7282 8.53794 15.4831C11.2798 18.238 14.8608 20.0017 18.716 20.4961L18.7175 20.4962C18.9339 20.5233 19.1535 20.5045 19.3621 20.4409C19.5707 20.3773 19.7635 20.2704 19.928 20.1272L19.9296 20.1257C20.0896 19.9852 20.2178 19.8122 20.3058 19.6182C20.3937 19.4242 20.4393 19.2137 20.4396 19.0007Z" fill="#8A1820" stroke="#8A1820"/>
</svg>
