<svg width="805" height="212" viewBox="0 0 805 212" fill="none" xmlns="http://www.w3.org/2000/svg">
<path d="M234.61 211.206L120.954 97.5501H146.702V65.0758H97.9915H65.5191V97.5501V146.259H97.9915V120.513L156.212 178.733H33.0466V32.6052H179.174V130.023L211.649 162.497V32.6052L179.174 0.130859H0.572266V32.6052V178.733L33.0466 211.206H163.94V186.457L188.686 211.206H234.61Z" fill="#8A1820"/>
<path d="M355.782 40.2083V89.1168C355.782 94.5519 358.5 97.2695 363.933 97.2695H396.54C401.975 97.2695 404.691 94.5519 404.691 89.1168V40.2083H420.996V89.1168C420.996 105.422 412.843 113.573 396.54 113.573H363.933C347.627 113.573 339.477 105.422 339.477 89.1168V40.2083H355.782Z" fill="black"/>
<path d="M494.36 76.8916V64.6625C494.36 59.2274 491.643 56.5117 486.21 56.5117H453.603C448.168 56.5117 445.452 59.2274 445.452 64.6625V76.8916H494.36ZM445.452 93.1931V113.575H429.146V64.6625C429.146 48.361 437.297 40.2083 453.603 40.2083H486.21C502.511 40.2083 510.666 48.361 510.666 64.6625V113.575H494.36V93.1931H445.452Z" fill="black"/>
<path d="M535.121 40.2083V89.1168C535.121 94.5519 537.838 97.2695 543.272 97.2695H600.335V113.573H543.272C526.966 113.573 518.815 105.422 518.815 89.1168V40.2083H535.121Z" fill="black"/>
<path d="M608.485 40.2083H624.791V113.573H608.485V40.2083Z" fill="black"/>
<path d="M632.941 40.2083H714.459V56.5098H681.854V113.573H665.548V56.5098H632.941V40.2083Z" fill="black"/>
<path d="M755.216 85.0424H747.066C730.76 85.0424 722.609 76.8916 722.609 60.5862V40.2083H738.915V60.5862C738.915 66.0232 741.63 68.7369 747.066 68.7369H779.673C785.106 68.7369 787.823 66.0232 787.823 60.5862V40.2083H804.129V60.5862C804.129 76.8916 795.974 85.0424 779.673 85.0424H771.522V113.573H755.216V85.0424Z" fill="black"/>
<path d="M258.001 139.244V160.988C258.001 163.402 259.21 164.611 261.624 164.611H286.993V171.858H261.624C254.377 171.858 250.754 168.236 250.754 160.988V139.244H258.001Z" fill="black"/>
<path d="M332.948 164.611H347.445C349.859 164.611 351.068 163.402 351.068 160.988V150.114C351.068 147.7 349.859 146.493 347.445 146.493H332.948C330.534 146.493 329.326 147.702 329.326 150.114V160.988C329.326 163.402 330.534 164.611 332.948 164.611ZM332.948 171.858C325.701 171.858 322.078 168.236 322.078 160.988V150.114C322.078 142.87 325.701 139.244 332.948 139.244H347.445C354.693 139.244 358.316 142.87 358.316 150.114V160.988C358.316 168.236 355.296 171.858 349.256 171.858H332.948Z" fill="black"/>
<path d="M429.641 151.93V171.86H404.272C397.024 171.86 393.401 168.237 393.401 160.99V150.116C393.401 142.87 397.024 139.246 404.272 139.246H429.641V146.493H404.272C401.858 146.493 400.649 147.702 400.649 150.116V160.99C400.649 163.404 401.858 164.613 404.272 164.613H422.391V159.178H413.331V151.93H429.639H429.641Z" fill="black"/>
<path d="M464.727 139.244H471.974V171.86H464.727V139.244Z" fill="black"/>
<path d="M507.061 164.611H536.051V159.178H517.931C510.683 159.178 507.061 155.901 507.061 149.355C507.061 142.613 510.683 139.244 517.931 139.244H543.3V146.493H514.31V151.928H532.43C539.677 151.928 543.3 155.247 543.3 161.893C543.3 168.535 539.677 171.858 532.43 171.858H507.061V164.611Z" fill="black"/>
<path d="M578.387 139.244H614.624V146.491H600.131V171.86H592.884V146.491H578.387V139.244Z" fill="black"/>
<path d="M649.71 139.244H656.957V171.86H649.71V139.244Z" fill="black"/>
<path d="M728.283 171.86H702.914C695.667 171.86 692.044 168.237 692.044 160.99V150.116C692.044 142.87 695.667 139.246 702.914 139.246H728.283V146.493H702.914C700.5 146.493 699.291 147.702 699.291 150.116V160.99C699.291 163.404 700.5 164.613 702.914 164.613H728.283V171.86Z" fill="black"/>
<path d="M763.369 164.611H792.359V159.178H774.239C766.992 159.178 763.369 155.901 763.369 149.355C763.369 142.613 766.992 139.244 774.239 139.244H799.609V146.493H770.619V151.928H788.738C795.986 151.928 799.609 155.247 799.609 161.893C799.609 168.535 795.986 171.858 788.738 171.858H763.369V164.611Z" fill="black"/>
<path d="M308.961 86.9603L290.805 86.9431L294.975 93.9446H274.501C269.068 93.9446 266.35 91.227 266.35 85.7937V61.3376C266.35 55.9024 269.068 53.1868 274.501 53.1868H307.108C312.541 53.1868 315.259 55.9024 315.259 61.3376V85.7937C315.259 89.0437 314.265 91.3 312.322 92.6069L308.961 86.9623V86.9603ZM331.564 85.7937V61.3376C331.564 45.0341 323.41 36.8833 307.108 36.8833H274.501C258.196 36.8833 250.045 45.0341 250.045 61.3376V85.7937C250.045 102.097 258.196 110.25 274.501 110.25H304.688L308.648 116.896L326.788 116.898L321.522 108.053C328.207 104.638 331.564 97.231 331.564 85.7937Z" fill="black"/>
</svg>
