<svg width="24" height="24" viewBox="0 0 24 24" fill="none" xmlns="http://www.w3.org/2000/svg">
<path opacity="0.4" d="M8.88003 4.60022C8.08003 1.14022 2.87002 1.13022 2.07002 4.60022C1.60002 6.63022 2.89003 8.35022 4.01003 9.42022C4.83003 10.1902 6.12003 10.1902 6.94003 9.42022C8.06003 8.35022 9.34003 6.63022 8.88003 4.60022ZM5.51003 6.20022C4.96003 6.20022 4.51003 5.75022 4.51003 5.20022C4.51003 4.65022 4.95003 4.20022 5.50003 4.20022H5.51003C6.07003 4.20022 6.51003 4.65022 6.51003 5.20022C6.51003 5.75022 6.07003 6.20022 5.51003 6.20022Z" fill="#8A1820"/>
<path d="M6.50977 5.2002C6.50977 5.7502 6.06977 6.2002 5.50977 6.2002C4.95977 6.2002 4.50977 5.7502 4.50977 5.2002C4.50977 4.6502 4.94977 4.2002 5.49977 4.2002H5.50977C6.06977 4.2002 6.50977 4.6502 6.50977 5.2002Z" fill="#8A1820"/>
<path opacity="0.4" d="M21.91 16.6002C21.11 13.1402 15.88 13.1302 15.07 16.6002C14.6 18.6302 15.89 20.3502 17.02 21.4202C17.84 22.1902 19.14 22.1902 19.96 21.4202C21.09 20.3502 22.38 18.6302 21.91 16.6002ZM18.53 18.2002C17.98 18.2002 17.53 17.7502 17.53 17.2002C17.53 16.6502 17.97 16.2002 18.52 16.2002H18.53C19.08 16.2002 19.53 16.6502 19.53 17.2002C19.53 17.7502 19.08 18.2002 18.53 18.2002Z" fill="#8A1820"/>
<path d="M19.5303 17.2002C19.5303 17.7502 19.0803 18.2002 18.5303 18.2002C17.9803 18.2002 17.5303 17.7502 17.5303 17.2002C17.5303 16.6502 17.9703 16.2002 18.5203 16.2002H18.5303C19.0803 16.2002 19.5303 16.6502 19.5303 17.2002Z" fill="#8A1820"/>
<path d="M12.0004 19.75H9.32043C8.16043 19.75 7.15043 19.05 6.75043 17.97C6.34043 16.89 6.64043 15.7 7.51043 14.93L15.5004 7.94C15.9804 7.52 15.9904 6.95 15.8504 6.56C15.7004 6.17 15.3204 5.75 14.6804 5.75H12.0004C11.5904 5.75 11.2504 5.41 11.2504 5C11.2504 4.59 11.5904 4.25 12.0004 4.25H14.6804C15.8404 4.25 16.8504 4.95 17.2504 6.03C17.6604 7.11 17.3604 8.3 16.4904 9.07L8.50043 16.06C8.02043 16.48 8.01043 17.05 8.15043 17.44C8.30043 17.83 8.68043 18.25 9.32043 18.25H12.0004C12.4104 18.25 12.7504 18.59 12.7504 19C12.7504 19.41 12.4104 19.75 12.0004 19.75Z" fill="#8A1820"/>
</svg>
