<svg width="131" height="23" viewBox="0 0 131 23" fill="none" xmlns="http://www.w3.org/2000/svg">
<g clip-path="url(#clip0_79_991)">
<path d="M20.5969 8.41939C20.5392 8.24958 20.4331 8.10037 20.2916 7.99018C20.1501 7.87999 19.9795 7.81365 19.8007 7.79934L14.5716 7.38383L12.3087 2.37482C12.2367 2.21349 12.1195 2.07646 11.9712 1.98028C11.823 1.88409 11.6501 1.83286 11.4734 1.83276C11.2968 1.83267 11.1238 1.88371 10.9755 1.97973C10.8272 2.07575 10.7098 2.21265 10.6375 2.3739L8.37473 7.38383L3.14558 7.79934C2.96989 7.81326 2.80193 7.8775 2.66179 7.98438C2.52165 8.09125 2.41527 8.23624 2.35537 8.40199C2.29548 8.56774 2.2846 8.74724 2.32405 8.91901C2.3635 9.09078 2.4516 9.24755 2.57781 9.37056L6.44212 13.1376L5.07544 19.0556C5.03394 19.2348 5.04724 19.4222 5.11361 19.5937C5.17999 19.7652 5.29637 19.9128 5.44765 20.0173C5.59894 20.1218 5.77815 20.1785 5.96202 20.1799C6.1459 20.1813 6.32594 20.1274 6.47881 20.0252L11.4731 16.6956L16.4675 20.0252C16.6237 20.1289 16.808 20.1823 16.9955 20.1782C17.183 20.1741 17.3647 20.1126 17.5162 20.0022C17.6678 19.8917 17.7819 19.7374 17.8431 19.5602C17.9044 19.3829 17.9099 19.1912 17.8589 19.0107L16.1813 13.1404L20.3419 9.39625C20.6143 9.15043 20.7143 8.76702 20.5969 8.41939Z" fill="#F3CD03"/>
<path d="M47.6115 8.41939C47.5539 8.24958 47.4478 8.10037 47.3063 7.99018C47.1648 7.87999 46.9941 7.81365 46.8154 7.79934L41.5862 7.38383L39.3234 2.37482C39.2513 2.21349 39.1341 2.07646 38.9859 1.98028C38.8377 1.88409 38.6648 1.83286 38.4881 1.83276C38.3114 1.83267 38.1385 1.88371 37.9901 1.97973C37.8418 2.07575 37.7244 2.21265 37.6522 2.3739L35.3894 7.38383L30.1602 7.79934C29.9845 7.81326 29.8166 7.8775 29.6764 7.98438C29.5363 8.09125 29.4299 8.23624 29.37 8.40199C29.3101 8.56774 29.2993 8.74724 29.3387 8.91901C29.3781 9.09078 29.4662 9.24755 29.5925 9.37056L33.4568 13.1376L32.0901 19.0556C32.0486 19.2348 32.0619 19.4222 32.1283 19.5937C32.1946 19.7652 32.311 19.9128 32.4623 20.0173C32.6136 20.1218 32.7928 20.1785 32.9767 20.1799C33.1605 20.1813 33.3406 20.1274 33.4935 20.0252L38.4878 16.6956L43.4821 20.0252C43.6384 20.1289 43.8226 20.1823 44.0101 20.1782C44.1976 20.1741 44.3794 20.1126 44.5309 20.0022C44.6824 19.8917 44.7965 19.7374 44.8578 19.5602C44.919 19.3829 44.9246 19.1912 44.8736 19.0107L43.196 13.1404L47.3565 9.39625C47.629 9.15043 47.7289 8.76702 47.6115 8.41939Z" fill="#F3CD03"/>
<path d="M74.6223 8.41939C74.5646 8.24958 74.4585 8.10037 74.317 7.99018C74.1755 7.87999 74.0049 7.81365 73.8261 7.79934L68.597 7.38383L66.3341 2.37482C66.2621 2.21349 66.1449 2.07646 65.9966 1.98028C65.8484 1.88409 65.6755 1.83286 65.4988 1.83276C65.3221 1.83267 65.1492 1.88371 65.0009 1.97973C64.8525 2.07575 64.7352 2.21265 64.6629 2.3739L62.4001 7.38383L57.171 7.79934C56.9953 7.81326 56.8273 7.8775 56.6872 7.98438C56.547 8.09125 56.4407 8.23624 56.3808 8.40199C56.3209 8.56774 56.31 8.74724 56.3494 8.91901C56.3889 9.09078 56.477 9.24755 56.6032 9.37056L60.4675 13.1376L59.1008 19.0556C59.0593 19.2348 59.0726 19.4222 59.139 19.5937C59.2054 19.7652 59.3218 19.9128 59.473 20.0173C59.6243 20.1218 59.8035 20.1785 59.9874 20.1799C60.1713 20.1813 60.3513 20.1274 60.5042 20.0252L65.4985 16.6956L70.4929 20.0252C70.6491 20.1289 70.8334 20.1823 71.0209 20.1782C71.2084 20.1741 71.3901 20.1126 71.5416 20.0022C71.6932 19.8917 71.8073 19.7374 71.8685 19.5602C71.9298 19.3829 71.9353 19.1912 71.8843 19.0107L70.2067 13.1404L74.3673 9.39625C74.6397 9.15043 74.7397 8.76702 74.6223 8.41939Z" fill="#F3CD03"/>
<path d="M101.637 8.41939C101.579 8.24958 101.473 8.10037 101.332 7.99018C101.19 7.87999 101.02 7.81365 100.841 7.79934L95.6116 7.38383L93.3488 2.37482C93.2767 2.21349 93.1595 2.07646 93.0113 1.98028C92.8631 1.88409 92.6902 1.83286 92.5135 1.83276C92.3368 1.83267 92.1638 1.88371 92.0155 1.97973C91.8672 2.07575 91.7498 2.21265 91.6776 2.3739L89.4148 7.38383L84.1856 7.79934C84.0099 7.81326 83.842 7.8775 83.7018 7.98438C83.5617 8.09125 83.4553 8.23624 83.3954 8.40199C83.3355 8.56774 83.3246 8.74724 83.3641 8.91901C83.4035 9.09078 83.4916 9.24755 83.6178 9.37056L87.4822 13.1376L86.1155 19.0556C86.074 19.2348 86.0873 19.4222 86.1537 19.5937C86.22 19.7652 86.3364 19.9128 86.4877 20.0173C86.639 20.1218 86.8182 20.1785 87.0021 20.1799C87.1859 20.1813 87.366 20.1274 87.5188 20.0252L92.5132 16.6956L97.5075 20.0252C97.6638 20.1289 97.848 20.1823 98.0355 20.1782C98.223 20.1741 98.4047 20.1126 98.5563 20.0022C98.7078 19.8917 98.8219 19.7374 98.8832 19.5602C98.9444 19.3829 98.9499 19.1912 98.899 19.0107L97.2213 13.1404L101.382 9.39625C101.654 9.15043 101.754 8.76702 101.637 8.41939Z" fill="#F3CD03"/>
<path d="M114.498 13.1377L113.131 19.0557C113.089 19.2349 113.101 19.4227 113.167 19.5945C113.234 19.7664 113.35 19.9143 113.501 20.0191C113.653 20.1238 113.832 20.1804 114.016 20.1814C114.201 20.1825 114.381 20.1281 114.533 20.0252L119.528 16.6956L124.522 20.0252C124.678 20.1289 124.863 20.1823 125.05 20.1782C125.238 20.1741 125.419 20.1127 125.571 20.0022C125.722 19.8917 125.837 19.7375 125.898 19.5602C125.959 19.383 125.965 19.1912 125.914 19.0107L124.236 13.1404L128.397 9.39628C128.53 9.27629 128.625 9.11988 128.67 8.94638C128.716 8.77289 128.709 8.58992 128.651 8.4201C128.594 8.25029 128.488 8.10107 128.346 7.99091C128.205 7.88075 128.034 7.81448 127.855 7.80029L122.626 7.38386L120.363 2.37485C120.291 2.21356 120.174 2.0766 120.026 1.98049C119.877 1.88439 119.705 1.83325 119.528 1.83325C119.351 1.83325 119.178 1.88439 119.03 1.98049C118.882 2.0766 118.764 2.21356 118.692 2.37485L116.429 7.38386L111.2 7.79937C111.025 7.81329 110.857 7.87753 110.716 7.98441C110.576 8.09128 110.47 8.23627 110.41 8.40202C110.35 8.56777 110.339 8.74727 110.379 8.91904C110.418 9.09081 110.506 9.24758 110.632 9.37059L114.498 13.1377ZM117.115 9.16972C117.278 9.15682 117.436 9.10012 117.57 9.00555C117.704 8.91098 117.81 8.78203 117.878 8.63222L119.528 4.98071L121.178 8.63222C121.245 8.78203 121.352 8.91098 121.486 9.00555C121.62 9.10012 121.777 9.15682 121.941 9.16972L125.584 9.45865L122.584 12.159C122.324 12.3938 122.22 12.7552 122.315 13.0927L123.465 17.1148L120.038 14.83C119.887 14.729 119.71 14.6751 119.529 14.6751C119.348 14.6751 119.171 14.729 119.021 14.83L115.44 17.2175L116.403 13.0478C116.438 12.8944 116.433 12.7346 116.389 12.5836C116.345 12.4326 116.262 12.2955 116.15 12.1856L113.363 9.46874L117.115 9.16972Z" fill="#F3CD03"/>
</g>
<defs>
<clipPath id="clip0_79_991">
<rect width="130.068" height="22.0136" fill="white" transform="translate(0.46582)"/>
</clipPath>
</defs>
</svg>
